<?xml version="1.0" encoding="utf-8"?>
<!-- Generator: Adobe Illustrator 24.2.3, SVG Export Plug-In . SVG Version: 6.00 Build 0)  -->
<svg version="1.1" id="Ebene_1" xmlns="http://www.w3.org/2000/svg" xmlns:xlink="http://www.w3.org/1999/xlink" x="0px" y="0px"
	 viewBox="0 0 74 24" style="enable-background:new 0 0 74 24;" xml:space="preserve">
<style type="text/css">
	.st0{fill:#FFFFFF;}
</style>
<path class="st0" d="M9.2,0L9.2,0L9.2,0z"/>
<path class="st0" d="M9.3,0.1L9.3,0.1L9.3,0.1z"/>
<g>
	<path class="st0" d="M5.4,10.3c0.2-1.1,0.4-2.2,0.7-3.3c0.1-0.4,0.3-0.9,0.5-1.3C6.9,5.2,7.3,5,7.9,5c0.4,0,0.8,0.1,1.2,0.2
		c0.2,0,0.5,0,0.7,0c1.6-0.5,3.2-0.3,4.7,0.5c0.9,0.4,1.4,1.2,1.8,2.1c0.6,1.3,0.9,2.7,0.9,4.1c0,0.5,0.2,0.8,0.7,1
		c1.1,0.4,2.1,1,2.9,1.8c0.3,0.3,0.6,0.6,0.9,1c0.4,0.7,0.3,1.4-0.2,2c-0.6,0.6-1.4,0.9-2.2,1.2c-1.3,0.4-2.7,0.5-4,0.5
		c-3.6,0-7.1-0.6-10.4-2c-1.6-0.7-3.1-1.5-4.1-2.9c-0.2-0.2-0.4-0.5-0.5-0.8C-0.2,12.8,0,12,0.8,11.4c0.7-0.5,1.6-0.7,2.5-0.9
		C4,10.4,4.7,10.4,5.4,10.3z M17.2,12.8c-4.4,2.1-8.3,1.1-11.8-2.1c0,0,0,0.1,0,0.1c0,0.4,0,0.7-0.1,1.1c-0.1,0.4,0.1,0.7,0.4,0.9
		c2.6,2.2,5.6,3,8.9,2.7c0.8-0.1,1.6-0.3,2.3-0.8c0.1-0.1,0.3-0.3,0.3-0.4C17.3,13.8,17.2,13.3,17.2,12.8z"/>
	<path d="M17.2,12.8c0,0.5,0,1,0,1.5c0,0.2-0.1,0.3-0.3,0.4c-0.7,0.5-1.5,0.8-2.3,0.8c-3.3,0.3-6.3-0.6-8.9-2.7
		c-0.3-0.3-0.5-0.5-0.4-0.9c0.1-0.4,0.1-0.7,0.1-1.1c0,0,0,0,0-0.1C9,13.9,12.8,14.9,17.2,12.8z"/>
</g>
<g>
	<path class="st0" d="M-45,30.4c0.2-1.1,0.4-2.2,0.7-3.3c0.1-0.4,0.3-0.9,0.5-1.3c0.3-0.5,0.7-0.8,1.3-0.8c0.4,0,0.8,0.1,1.2,0.2
		c0.2,0,0.5,0,0.7,0c1.6-0.5,3.2-0.3,4.7,0.5c0.9,0.4,1.4,1.2,1.8,2.1c0.6,1.3,0.9,2.7,0.9,4.1c0,0.5,0.2,0.8,0.7,1
		c1.1,0.4,2.1,1,2.9,1.8c0.3,0.3,0.6,0.6,0.9,1c0.4,0.7,0.3,1.4-0.2,2c-0.6,0.6-1.4,0.9-2.2,1.2c-1.3,0.4-2.7,0.5-4,0.5
		c-3.6,0-7.1-0.6-10.4-2c-1.6-0.7-3.1-1.5-4.1-2.9c-0.2-0.2-0.4-0.5-0.5-0.8c-0.4-0.9-0.2-1.7,0.6-2.3c0.7-0.5,1.6-0.7,2.5-0.9
		C-46.4,30.5-45.7,30.5-45,30.4z M-33.2,32.9c-4.4,2.1-8.3,1.1-11.8-2.1c0,0,0,0.1,0,0.1c0,0.4,0,0.7-0.1,1.1
		c-0.1,0.4,0.1,0.7,0.4,0.9c2.6,2.2,5.6,3,8.9,2.7c0.8-0.1,1.6-0.3,2.3-0.8c0.1-0.1,0.3-0.3,0.3-0.4C-33.1,33.9-33.2,33.4-33.2,32.9
		z"/>
	<path class="st0" d="M-33.2,32.9c0,0.5,0,1,0,1.5c0,0.2-0.1,0.3-0.3,0.4c-0.7,0.5-1.5,0.8-2.3,0.8c-3.3,0.3-6.3-0.6-8.9-2.7
		c-0.3-0.3-0.5-0.5-0.4-0.9c0.1-0.4,0.1-0.7,0.1-1.1c0,0,0,0,0-0.1C-41.4,34-37.6,35-33.2,32.9z"/>
</g>
<g>
	<g>
		<path class="st0" d="M31.1,10.2c0,0.6-0.2,1.1-0.5,1.6s-0.7,0.8-1.3,1.1s-1.2,0.4-2,0.4c-0.6,0-1.2,0-1.6-0.1
			c-0.4-0.1-0.9-0.2-1.4-0.5v-2.3c0.5,0.3,1,0.5,1.5,0.6c0.5,0.1,1,0.2,1.5,0.2c0.4,0,0.7-0.1,0.8-0.2c0.2-0.1,0.3-0.3,0.3-0.5
			c0-0.1,0-0.2-0.1-0.3S28.2,9.8,28,9.7s-0.6-0.3-1.3-0.6c-0.6-0.3-1.1-0.6-1.4-0.8C25,8,24.8,7.7,24.6,7.4s-0.2-0.8-0.2-1.2
			c0-0.9,0.3-1.6,1-2.1C26,3.6,26.9,3.3,28,3.3c1,0,2,0.2,3,0.7l-0.8,2c-0.9-0.4-1.7-0.6-2.3-0.6c-0.3,0-0.6,0.1-0.7,0.2
			C27.1,5.7,27,5.9,27,6c0,0.2,0.1,0.4,0.3,0.5C27.5,6.7,28,7,28.9,7.4c0.8,0.4,1.4,0.8,1.7,1.2C30.9,9,31.1,9.5,31.1,10.2z"/>
		<path class="st0" d="M36.9,5.5c0.2,0,0.4,0,0.6,0.1l0.1,0L37.4,8c-0.2-0.1-0.5-0.1-0.9-0.1c-0.6,0-1,0.1-1.2,0.4S35,8.9,35,9.4
			v3.7h-2.6V5.6h1.9l0.4,1.2h0.1c0.2-0.4,0.5-0.7,0.9-1S36.5,5.5,36.9,5.5z"/>
		<path class="st0" d="M48.2,13.1l-0.5-1.8h-3.1l-0.5,1.8h-2.9l3.1-9.6h3.5l3.2,9.6H48.2z M47.2,9.2l-0.4-1.6
			c-0.1-0.3-0.2-0.8-0.4-1.4c-0.1-0.6-0.2-1-0.3-1.2c0,0.2-0.1,0.6-0.2,1.1c-0.1,0.5-0.4,1.5-0.8,3H47.2z"/>
		<path class="st0" d="M54.5,13.1H52V2.9h2.6V13.1z"/>
		<path class="st0" d="M61.2,13.1l-0.5-1h-0.1c-0.3,0.4-0.7,0.7-1.1,0.9c-0.4,0.2-0.8,0.2-1.4,0.2c-0.7,0-1.3-0.2-1.7-0.6
			c-0.4-0.4-0.6-1-0.6-1.8c0-0.8,0.3-1.4,0.8-1.8s1.4-0.6,2.4-0.7l1.2,0V8.2c0-0.6-0.3-0.9-0.9-0.9c-0.5,0-1.2,0.2-2.1,0.6l-0.7-1.7
			c0.9-0.4,2-0.7,3.3-0.7c1,0,1.7,0.2,2.2,0.7s0.8,1.1,0.8,2v4.9H61.2z M59.3,11.4c0.3,0,0.6-0.1,0.8-0.3c0.2-0.2,0.3-0.5,0.3-0.8
			V9.8l-0.6,0c-0.8,0-1.3,0.3-1.3,0.9C58.5,11.2,58.8,11.4,59.3,11.4z"/>
		<path class="st0" d="M69.4,13.1V9c0-0.5-0.1-0.9-0.2-1.1c-0.1-0.3-0.4-0.4-0.7-0.4c-0.4,0-0.7,0.2-0.9,0.5
			c-0.2,0.3-0.3,0.9-0.3,1.8v3.3h-2.6V5.6h1.9L67,6.6h0.2c0.2-0.4,0.5-0.6,0.9-0.8c0.4-0.2,0.8-0.3,1.3-0.3c0.8,0,1.5,0.2,1.9,0.7
			c0.5,0.5,0.7,1.1,0.7,2v4.8H69.4z"/>
	</g>
	<g>
		<path class="st0" d="M24.2,19.3v-3.7h0.6v3.7H24.2z"/>
		<path class="st0" d="M26.3,19.3h-0.6v-3.9h0.6V19.3z"/>
		<path class="st0" d="M29.2,19.3l-0.1-0.4h0c-0.1,0.1-0.2,0.2-0.4,0.3c-0.2,0.1-0.3,0.1-0.5,0.1c-0.3,0-0.6-0.1-0.8-0.3
			c-0.2-0.2-0.2-0.4-0.2-0.8v-1.8h0.6v1.7c0,0.2,0,0.4,0.1,0.5s0.2,0.2,0.4,0.2c0.2,0,0.4-0.1,0.5-0.2c0.1-0.1,0.2-0.4,0.2-0.7v-1.4
			h0.6v2.8H29.2z"/>
		<path class="st0" d="M32.3,18.5c0,0.3-0.1,0.5-0.3,0.6c-0.2,0.1-0.5,0.2-0.9,0.2c-0.4,0-0.7-0.1-0.9-0.2v-0.5
			c0.3,0.2,0.6,0.2,0.9,0.2c0.4,0,0.5-0.1,0.5-0.3c0-0.1,0-0.1-0.1-0.2c0,0-0.1-0.1-0.2-0.1c-0.1-0.1-0.2-0.1-0.4-0.2
			c-0.3-0.1-0.5-0.2-0.7-0.4c-0.1-0.1-0.2-0.3-0.2-0.5c0-0.2,0.1-0.4,0.3-0.6s0.5-0.2,0.8-0.2c0.3,0,0.6,0.1,0.9,0.2l-0.2,0.4
			c-0.3-0.1-0.6-0.2-0.8-0.2c-0.3,0-0.5,0.1-0.5,0.3c0,0.1,0,0.2,0.1,0.2s0.3,0.1,0.5,0.2c0.2,0.1,0.4,0.2,0.5,0.2
			c0.1,0.1,0.2,0.2,0.2,0.3C32.3,18.3,32.3,18.4,32.3,18.5z"/>
		<path class="st0" d="M34,18.9c0.1,0,0.3,0,0.4-0.1v0.4c-0.1,0-0.1,0.1-0.3,0.1c-0.1,0-0.2,0-0.3,0c-0.6,0-0.8-0.3-0.8-0.9V17h-0.4
			v-0.3l0.4-0.2l0.2-0.6h0.4v0.6h0.8V17h-0.8v1.5c0,0.1,0,0.2,0.1,0.3C33.8,18.8,33.9,18.9,34,18.9z"/>
		<path class="st0" d="M36.4,16.5c0.1,0,0.2,0,0.3,0L36.6,17c-0.1,0-0.2,0-0.3,0c-0.2,0-0.4,0.1-0.6,0.2c-0.1,0.2-0.2,0.4-0.2,0.6
			v1.5H35v-2.8h0.5l0.1,0.5h0c0.1-0.2,0.2-0.3,0.4-0.4S36.2,16.5,36.4,16.5z"/>
		<path class="st0" d="M39,19.3l-0.1-0.4h0c-0.1,0.2-0.3,0.3-0.4,0.3c-0.1,0.1-0.3,0.1-0.5,0.1c-0.3,0-0.5-0.1-0.6-0.2
			C37.1,19,37,18.8,37,18.5c0-0.3,0.1-0.5,0.3-0.7c0.2-0.1,0.5-0.2,1-0.2l0.5,0v-0.1c0-0.2,0-0.3-0.1-0.4c-0.1-0.1-0.2-0.1-0.4-0.1
			c-0.1,0-0.3,0-0.4,0.1c-0.1,0-0.3,0.1-0.4,0.1l-0.2-0.4c0.2-0.1,0.3-0.1,0.5-0.2s0.3-0.1,0.5-0.1c0.4,0,0.6,0.1,0.8,0.2
			s0.3,0.4,0.3,0.7v1.9H39z M38.1,18.9c0.2,0,0.4-0.1,0.5-0.2c0.1-0.1,0.2-0.3,0.2-0.5V18l-0.4,0c-0.3,0-0.5,0.1-0.6,0.1
			c-0.1,0.1-0.2,0.2-0.2,0.4c0,0.1,0,0.2,0.1,0.3C37.8,18.9,37.9,18.9,38.1,18.9z"/>
		<path class="st0" d="M41.3,19.3c-0.4,0-0.7-0.1-1-0.4S40,18.4,40,17.9c0-0.5,0.1-0.8,0.3-1.1s0.6-0.4,1-0.4c0.3,0,0.6,0.1,0.8,0.2
			L42,17.1C41.7,17,41.5,17,41.4,17c-0.5,0-0.7,0.3-0.7,1c0,0.3,0.1,0.5,0.2,0.7s0.3,0.2,0.5,0.2c0.3,0,0.5-0.1,0.7-0.2v0.5
			c-0.1,0.1-0.2,0.1-0.3,0.1C41.7,19.3,41.5,19.3,41.3,19.3z"/>
		<path class="st0" d="M42.7,15.8c0-0.1,0-0.2,0.1-0.2c0.1-0.1,0.1-0.1,0.2-0.1c0.1,0,0.2,0,0.2,0.1c0.1,0.1,0.1,0.1,0.1,0.2
			c0,0.1,0,0.2-0.1,0.2c-0.1,0.1-0.1,0.1-0.2,0.1c-0.1,0-0.2,0-0.2-0.1C42.8,16,42.7,15.9,42.7,15.8z M43.4,19.3h-0.6v-2.8h0.6V19.3
			z"/>
		<path class="st0" d="M46.7,17.9c0,0.5-0.1,0.8-0.3,1.1c-0.2,0.3-0.6,0.4-1,0.4c-0.3,0-0.5-0.1-0.7-0.2s-0.4-0.3-0.5-0.5
			S44,18.2,44,17.9c0-0.5,0.1-0.8,0.3-1.1c0.2-0.3,0.6-0.4,1-0.4c0.4,0,0.7,0.1,1,0.4C46.6,17.1,46.7,17.5,46.7,17.9z M44.6,17.9
			c0,0.6,0.2,1,0.7,1c0.5,0,0.7-0.3,0.7-1c0-0.6-0.2-1-0.7-1c-0.2,0-0.4,0.1-0.5,0.2C44.7,17.4,44.6,17.6,44.6,17.9z"/>
		<path class="st0" d="M49.8,19.3h-0.6v-1.7c0-0.2,0-0.4-0.1-0.5c-0.1-0.1-0.2-0.2-0.4-0.2c-0.3,0-0.4,0.1-0.5,0.2
			c-0.1,0.1-0.2,0.4-0.2,0.7v1.4h-0.6v-2.8h0.5l0.1,0.4h0c0.1-0.1,0.2-0.2,0.4-0.3c0.2-0.1,0.3-0.1,0.5-0.1c0.7,0,1,0.3,1,1V19.3z"
			/>
		<path class="st0" d="M51.5,16.5h0.6l0.6,1.6c0.1,0.2,0.1,0.4,0.2,0.6h0c0-0.1,0-0.2,0.1-0.3c0-0.1,0.3-0.8,0.6-1.9h0.6l-1.2,3.2
			c-0.2,0.6-0.6,0.9-1.1,0.9c-0.1,0-0.3,0-0.4,0V20c0.1,0,0.2,0,0.3,0c0.3,0,0.5-0.2,0.6-0.5l0.1-0.3L51.5,16.5z"/>
		<path class="st0" d="M57,19.3c-0.3,0-0.6-0.1-0.8-0.4c-0.2-0.3-0.3-0.6-0.3-1.1c0-0.5,0.1-0.8,0.3-1.1c0.2-0.3,0.5-0.4,0.8-0.4
			c0.4,0,0.6,0.1,0.8,0.4h0c0-0.2,0-0.4,0-0.5v-1h0.6v3.9H58l-0.1-0.4h0C57.7,19.2,57.4,19.3,57,19.3z M57.2,18.9
			c0.2,0,0.4-0.1,0.5-0.2c0.1-0.1,0.2-0.4,0.2-0.7v-0.1c0-0.4-0.1-0.6-0.2-0.7c-0.1-0.1-0.3-0.2-0.5-0.2c-0.2,0-0.4,0.1-0.5,0.3
			s-0.2,0.4-0.2,0.7c0,0.3,0.1,0.5,0.2,0.7C56.8,18.8,57,18.9,57.2,18.9z"/>
		<path class="st0" d="M59.2,15.8c0-0.1,0-0.2,0.1-0.2c0.1-0.1,0.1-0.1,0.2-0.1c0.1,0,0.2,0,0.2,0.1c0.1,0.1,0.1,0.1,0.1,0.2
			c0,0.1,0,0.2-0.1,0.2c-0.1,0.1-0.1,0.1-0.2,0.1c-0.1,0-0.2,0-0.2-0.1C59.3,16,59.2,15.9,59.2,15.8z M59.9,19.3h-0.6v-2.8h0.6V19.3
			z"/>
		<path class="st0" d="M62.6,18.5c0,0.3-0.1,0.5-0.3,0.6c-0.2,0.1-0.5,0.2-0.9,0.2c-0.4,0-0.7-0.1-0.9-0.2v-0.5
			c0.3,0.2,0.6,0.2,0.9,0.2c0.4,0,0.5-0.1,0.5-0.3c0-0.1,0-0.1-0.1-0.2c0,0-0.1-0.1-0.2-0.1c-0.1-0.1-0.2-0.1-0.4-0.2
			c-0.3-0.1-0.5-0.2-0.7-0.4c-0.1-0.1-0.2-0.3-0.2-0.5c0-0.2,0.1-0.4,0.3-0.6s0.5-0.2,0.8-0.2c0.3,0,0.6,0.1,0.9,0.2l-0.2,0.4
			c-0.3-0.1-0.6-0.2-0.8-0.2c-0.3,0-0.5,0.1-0.5,0.3c0,0.1,0,0.2,0.1,0.2s0.3,0.1,0.5,0.2c0.2,0.1,0.4,0.2,0.5,0.2
			c0.1,0.1,0.2,0.2,0.2,0.3C62.6,18.3,62.6,18.4,62.6,18.5z"/>
		<path class="st0" d="M64.4,19.3c-0.4,0-0.8-0.1-1-0.4c-0.2-0.3-0.4-0.6-0.4-1c0-0.5,0.1-0.8,0.3-1.1c0.2-0.3,0.5-0.4,0.9-0.4
			c0.4,0,0.7,0.1,0.9,0.3c0.2,0.2,0.3,0.5,0.3,0.9V18h-1.9c0,0.3,0.1,0.5,0.2,0.6s0.3,0.2,0.6,0.2c0.2,0,0.3,0,0.5,0
			c0.1,0,0.3-0.1,0.5-0.2v0.5c-0.1,0.1-0.3,0.1-0.4,0.1S64.6,19.3,64.4,19.3z M64.3,16.9c-0.2,0-0.3,0.1-0.5,0.2s-0.2,0.3-0.2,0.5
			H65c0-0.2-0.1-0.4-0.2-0.5C64.7,17,64.5,16.9,64.3,16.9z"/>
		<path class="st0" d="M68.7,19.3h-0.6v-1.7c0-0.2,0-0.4-0.1-0.5c-0.1-0.1-0.2-0.2-0.4-0.2c-0.3,0-0.4,0.1-0.5,0.2
			c-0.1,0.1-0.2,0.4-0.2,0.7v1.4h-0.6v-2.8h0.5l0.1,0.4h0c0.1-0.1,0.2-0.2,0.4-0.3c0.2-0.1,0.3-0.1,0.5-0.1c0.7,0,1,0.3,1,1V19.3z
			 M67.8,16.2c-0.1,0-0.1,0-0.2,0c-0.1,0-0.1-0.1-0.2-0.1s-0.1-0.1-0.2-0.1c-0.1,0-0.1,0-0.2,0c-0.1,0-0.2,0.1-0.3,0.3h-0.3
			c0-0.2,0.1-0.4,0.2-0.5c0.1-0.1,0.3-0.2,0.4-0.2c0.1,0,0.1,0,0.2,0c0.1,0,0.1,0.1,0.2,0.1s0.1,0.1,0.2,0.1c0.1,0,0.1,0,0.2,0
			c0.1,0,0.2-0.1,0.3-0.3h0.3c0,0.2-0.1,0.4-0.2,0.5C68.1,16.1,68,16.2,67.8,16.2z"/>
		<path class="st0" d="M71.9,17.9c0,0.5-0.1,0.8-0.4,1.1c-0.2,0.3-0.6,0.4-1,0.4c-0.3,0-0.5-0.1-0.7-0.2c-0.2-0.1-0.4-0.3-0.5-0.5
			s-0.2-0.5-0.2-0.8c0-0.5,0.1-0.8,0.3-1.1s0.6-0.4,1-0.4c0.4,0,0.7,0.1,1,0.4C71.8,17.1,71.9,17.5,71.9,17.9z M69.9,17.9
			c0,0.6,0.2,1,0.7,1c0.5,0,0.7-0.3,0.7-1c0-0.6-0.2-1-0.7-1c-0.2,0-0.4,0.1-0.5,0.2C70,17.4,69.9,17.6,69.9,17.9z"/>
	</g>
</g>
</svg>
